<?xml version="1.0" encoding="utf-8"?>
<!-- Generator: Adobe Illustrator 19.2.0, SVG Export Plug-In . SVG Version: 6.00 Build 0)  -->
<svg version="1.1" id="Layer_1" xmlns="http://www.w3.org/2000/svg" xmlns:xlink="http://www.w3.org/1999/xlink" x="0px" y="0px"
	 viewBox="0 0 2000 2000" style="enable-background:new 0 0 2000 2000;" xml:space="preserve">
<style type="text/css">
	.st0{fill:url(#SVGID_1_);}
	.st1{fill:url(#SVGID_2_);}
	.st2{fill:none;}
	.st3{fill:#FFFFFF;}
</style>
<g>
	<g>
		<linearGradient id="SVGID_1_" gradientUnits="userSpaceOnUse" x1="911.2902" y1="1585.2985" x2="911.2902" y2="-12.9635">
			<stop  offset="2.702703e-03" style="stop-color:#FF0000"/>
			<stop  offset="1" style="stop-color:#4F0B02"/>
		</linearGradient>
		<path class="st0" d="M1189.72,729.35c0,14.86-0.82,29.47-2.49,43.78l-0.77,6.26c-0.73,5.41-1.58,10.77-2.54,16.07
			c-21.03,120.62-360.73,406.93-360.73,507.9c0,5.87,0.21,11.69,0.62,17.46c0.11,1.67,0.23,3.33,0.37,4.98
			c3.65,40.2,16.94,77.68,37.73,110.62c-1-0.39-1.98-0.78-2.95-1.19c-1.48-0.57-2.92-1.16-4.38-1.76
			c-50.38-20.93-94.94-52.99-130.64-93.11c-0.53-0.59-1.05-1.16-1.55-1.74c-4.43-5.02-8.72-10.18-12.85-15.45
			c-1.83-2.33-3.65-4.7-5.41-7.08c-26.73-35.82-46.93-76.79-58.87-121.15v-0.02c-0.28-1.01-0.55-1.99-0.8-3.01
			c-7.58-29.08-11.6-59.6-11.6-91.04c0-11.34,0.55-22.69,1.67-33.74c3.65-39.65,25.82-83.46,54.74-125.01
			c2.4-3.43,4.84-6.87,7.33-10.27c7.97-10.94,16.35-21.67,24.91-32.1c0.32-0.39,0.64-0.78,0.96-1.16
			c18.33-22.24,37.48-43.01,55.25-61.11c39.2-39.9,71.77-66.88,74.49-68.28c0.11,0,17.12-15.59,39.31-40.02
			c1.78-1.98,3.61-4,5.46-6.09c25.13-28.28,55.31-66.5,75.04-105.78c0.59-1.17,1.17-2.35,1.74-3.52
			c11.66-24.01,19.25-48.3,19.25-70.88c0-68.89-28.78-131.69-75.24-178.15c89.71,26.69,165.6,85.47,214.24,163.15
			c0.41,0.66,0.82,1.33,1.23,1.99v0.02c9.25,14.97,17.48,30.61,24.61,46.86c0.46,1.05,0.91,2.1,1.37,3.15
			c18.13,42.41,28.79,88.78,30.27,137.52c0.05,1.37,0.09,2.74,0.11,4.11C1189.7,724.15,1189.72,726.75,1189.72,729.35z"/>
		<linearGradient id="SVGID_2_" gradientUnits="userSpaceOnUse" x1="1174.626" y1="1585.3003" x2="1174.626" y2="-12.956">
			<stop  offset="2.702703e-03" style="stop-color:#FF0000"/>
			<stop  offset="1" style="stop-color:#4F0B02"/>
		</linearGradient>
		<path class="st1" d="M1363.11,1192.08c-14.54,83.39-249.42,281.35-249.42,351.16c0,33.67,9.77,65.04,26.78,92
			c-92.77-36.14-158.36-126.42-158.36-232c0-7.85,0.37-15.7,1.14-23.35c4.34-47,46.32-102.45,84.88-143.96
			c1.26-1.37,2.53-2.72,3.77-4.06c31.52-33.4,59.76-56.87,61.87-57.96c0.12,0,41.55-38.05,70.33-83.14
			c0.36-0.57,0.73-1.16,1.09-1.73c14.77-23.53,25.95-48.83,25.95-71.59c0-47.64-19.9-91.06-52.03-123.18
			c108.64,32.32,188.03,132.74,188.03,252.09C1367.14,1162.04,1365.8,1177.35,1363.11,1192.08z"/>
	</g>
	<path class="st2" d="M778.37,837.73c0-0.05-0.01-0.1-0.01-0.17l-0.1,0.08c-0.03-0.04-0.04-0.08-0.06-0.1
		c-0.19-0.04-0.4-0.06-0.59-0.1C777.85,837.51,778.16,837.55,778.37,837.73"/>
	<path class="st2" d="M943.35,742.32c-0.01-0.03,0-0.05,0-0.08c-0.19,0.06-0.4,0.06-0.59,0.16
		C942.97,742.34,943.16,742.38,943.35,742.32"/>
	<path class="st2" d="M885,802.96c0.03-0.35,0-0.71,0.05-1.07c-0.08,0.31-0.13,0.66-0.18,0.98c0.01,0,0.01,0.01,0.03,0.03
		C884.93,802.92,884.97,802.94,885,802.96"/>
	<path class="st2" d="M778.41,837.48c-0.1-0.05-0.22-0.01-0.31-0.06c0.03,0.04,0.05,0.08,0.09,0.13c0.04,0.01,0.08,0.03,0.13,0.03
		C778.36,837.55,778.36,837.51,778.41,837.48"/>
	<path class="st2" d="M783.46,869.17c0.09-0.09,0.22-0.15,0.31-0.26c-0.03-0.03-0.03-0.06-0.04-0.1c-0.14,0.14-0.28,0.28-0.44,0.41
		C783.35,869.19,783.41,869.18,783.46,869.17"/>
	<path class="st3" d="M784.52,1365.63c1.73,0.5,3.37,0.41,4.48-2.02c0.93-2.08,1.2-5.57-1.36-6.65c-1.18-0.5-2.07,0-2.92,0.74
		c-1.07,0.93-2.07,2.26-3.33,2.77c0.03,1.32,0.05,2.64,0.06,3.95C782.46,1364.85,783.5,1365.33,784.52,1365.63L784.52,1365.63z"/>
	<path class="st3" d="M1074.71,1235.95c-1.23,0.39-2.49,1.17-3.67,1.05c-1.12-0.11-2.22-0.43-2.9-1.07
		c1.26-1.37,2.53-2.72,3.77-4.06c0.34,0.21,0.66,0.48,0.98,0.78c0.62,0.57,1.25,1.16,1.89,1.73
		C1074.53,1234.9,1074.51,1235.43,1074.71,1235.95z"/>
	<path class="st3" d="M1058.65,1394.22l-4.65-0.37c-1.73,0.01-3.45,0.04-5.18,0.05c-0.94,0.4-1.89,0.79-2.83,1.19
		c0.62,1.07,1.56,1.46,2.77,1.25c0.22-0.08,0.47-0.05,0.7-0.06h0.06C1052.69,1396.18,1057.02,1401.55,1058.65,1394.22
		L1058.65,1394.22z"/>
	<path class="st3" d="M777.82,1311.44c1.12-0.27,2.14-1.18,3.26-1.55c-0.03-0.79-0.03-1.56,0-2.34c-1.09-0.32-2.2-0.71-3.28-0.81
		c-0.94-0.08-1.86,0.08-2.73,0.84c-1.06,0.9-0.56,2.26,0.41,3.17C776.34,1311.57,777.09,1311.62,777.82,1311.44L777.82,1311.44z"/>
	<path class="st3" d="M764.57,1169.38c-0.06-0.94-0.59-1.12-1.25-1.1c-0.9,0.03-2.12,0.53-3,0.49c0.09,0.75,0.04,1.47-0.17,2.18
		c1.03,0.09,2.39,0.61,3.35,0.41C764.17,1171.26,764.67,1170.82,764.57,1169.38L764.57,1169.38z"/>
	<path class="st3" d="M870.68,882.83c2.07,3.29,4.55,4.88,8.33,2.16c2.12-1.52,4.26-2.78,4.21-5.1c-0.03-0.1-0.04-0.26-0.06-0.39
		c-0.09-0.75-0.34-1.6-0.94-2.61c-1.06-1.74-1.31-3.95-1.71-6.09c-0.08-0.44-0.14-0.88-0.25-1.3c-0.06,0.04-0.13-0.04-0.18-0.01
		c-0.27,0.1-0.53-0.03-0.79-0.03c-0.35-0.01-0.71,0.15-1.06-0.05c-0.18,0.21-0.39,0.27-0.57,0.45c-4.33,3.66-9.52-1.6-14.36,0.94
		C865.83,874.92,868.2,878.9,870.68,882.83L870.68,882.83z"/>
	<path class="st3" d="M699.69,934.71l-0.04,0.04c-1.65,0.34-2.28,1.42-2.22,3.03c-0.69,4.02,1.3,8.54-2.81,12.88
		c-2.7-2.26-3.77-5.57-5.34-8.54c2.4-3.43,4.84-6.87,7.33-10.27c0.62,0.2,1.25,0.36,1.89,0.52c0.36,0.11,0.75,0.2,1.1,0.3
		C699.51,933.36,699.54,934.03,699.69,934.71z"/>
	<path class="st3" d="M732.52,1328.63c-3.81,0.84-4.04,1.67-2.28,5.93c1.83,4.41-2.87,4.82-6.3,5.8c-0.53-0.59-1.05-1.16-1.55-1.74
		c-1.46-11.18-0.6-11.48,13.97-15.29C736.7,1326.22,735.51,1327.99,732.52,1328.63z"/>
	<path class="st3" d="M736.4,1323.04c0.01,0.12-0.05,0.17-0.04,0.28c0.08-0.01,0.14-0.04,0.23-0.06L736.4,1323.04z"/>
	<path class="st3" d="M830.83,1025.19c-5.48-4.35-8.83-9.96-15.49-11.49C816.32,1026.05,817.73,1027.14,830.83,1025.19
		L830.83,1025.19z"/>
	<path class="st3" d="M683.88,1150.9c3.67,0.59,7.44,0.03,10.53,3.27c1.59,1.69,4.28,0.75,5.01-1.74c0.71-2.33-0.71-4.47-2.95-4.88
		c-5.22-0.93-10.52-1.36-15.7-1.99C679.98,1149.13,681.66,1150.52,683.88,1150.9L683.88,1150.9z"/>
	<path class="st3" d="M886.99,906.24c0.59,1.86-0.01,4.52,3.51,5.34c2.44-0.92,3.01-3.45,3-6.05c0-3.89-2.12-6.49-5.85-7.57
		c-0.72-0.19-1.93,0.05-2.43,0.54C881.82,901.9,886.19,903.73,886.99,906.24L886.99,906.24z"/>
	<path class="st3" d="M726.47,1301.47c-1.28-2.96-3.53-1.36-5.44-0.34c-2.64,1.38-1.6,3.2-0.97,5.35c0.78,2.6,2.31,3.81,4.68,3.19
		c3.15-0.84,6.15-2.25,9.52-3.53C731.28,1304.79,727.97,1304.95,726.47,1301.47L726.47,1301.47z"/>
	<path class="st3" d="M744.56,954.64c-0.78,3.95,1.51,6.24,3.95,8.18c3.71,0.19,3.5-2.64,4.13-4.47c1.59-4.6-1.83-6.32-5.14-7.22
		C745.62,950.61,744.91,952.89,744.56,954.64L744.56,954.64z"/>
	<path class="st3" d="M875.19,897.51c-2.64-1.5-5.36-2.95-8.44-1.34c-0.57,0.27-1.18,1.45-1.02,2c0.98,3.81,3.81,5.54,7.53,5.71
		c1.62,0.06,3.26-0.49,4.87-0.76C878.11,899.38,876.68,898.37,875.19,897.51L875.19,897.51z"/>
	<path class="st3" d="M847.08,905.73c0-0.03,0-0.05,0-0.08c-0.04,0-0.08-0.01-0.1-0.03L847.08,905.73z"/>
	<path class="st3" d="M846.97,904.64c0.04,0.31,0,0.59,0.1,0.94c0,0.03,0,0.05,0,0.08c0.03,0,0.05,0,0.09,0.01
		c1.65,0.28,3.31,0.57,4.96,0.84c1.33,0.22,2.64,0.19,3.88-0.1c0.8-0.21,1.6-0.43,2.24-1.1c0.56-0.59,0.31-2.64-0.31-3.49
		c-1.58-2.17-3.81-3.79-6.68-2.87C848.4,899.85,846.52,901.57,846.97,904.64L846.97,904.64z"/>
	<path class="st3" d="M858.18,1127.21c-1.77-0.54-3.42,0.44-3.61,2.57c-0.28,3.42,1.15,5.78,4.55,6.72c2.49-0.43,3.95-2,4.1-4.32
		C863.39,1128.88,860.58,1127.96,858.18,1127.21L858.18,1127.21z"/>
	<path class="st3" d="M661,1112.36c0.48,0.44,1.69,0.57,2.31,0.3c2.4-1.1,4.48-2.73,4.39-5.63c-0.05-1.64-0.94-3.2-3.97-4.63
		c-0.57,1.3-1.09,2.42-1.55,3.54C661.32,1107.99,658.11,1109.7,661,1112.36L661,1112.36z"/>
	<path class="st3" d="M814.35,892.45c0.32,0.13,0.8-0.12,1.2-0.18c0.94-0.59,1.06-1.24,0.56-2.13c-1.58-2.66-0.74-7.07-5.32-7.47
		c-0.58-0.05-1.62,0.88-1.81,1.54C807.53,888.98,810.61,890.99,814.35,892.45L814.35,892.45z"/>
	<path class="st3" d="M649.23,1061.19c2.92,3.09,7.13,6.06,12.33,4.78c0.22-3.1-3.45-2.79-3.66-5.14c0.79-6.02-3.31-2.2-5.3-2.62
		C650.54,1058.32,646.93,1058.78,649.23,1061.19L649.23,1061.19z"/>
	<path class="st3" d="M729.29,945.89c-3-0.5-4.92,1.23-5.17,4.11c-0.16,1.77,1.25,3.09,3.13,3.41c2.75,0.5,3.76-1.1,3.92-2.56
		C731.31,948.2,731.4,946.22,729.29,945.89L729.29,945.89z"/>
	<path class="st3" d="M652.36,1078.48c-0.99-0.28-3.18,0.32-3.37,0.94c-1.33,4.43,2.02,5.76,5.75,7.49
		C655.97,1082.59,656.27,1079.62,652.36,1078.48L652.36,1078.48z"/>
	<path class="st3" d="M808.06,979.39c-0.44-1.54-1.59-2.36-3.02-2.71c-0.27-0.08-0.47-0.25-0.76-0.27c-1.02-0.1-1.96,0.08-2.7,0.56
		c-0.58,0.35-1.06,0.84-1.1,1.73c-0.13,2.91,2.36,3.13,4.57,3.49C806.37,981.61,808.88,982.27,808.06,979.39L808.06,979.39z"/>
	<path class="st3" d="M661.55,1021.84c0.12,2.34,1.33,4.08,3.77,4.54c1.42,0.27,2.44-0.3,2.44-2.05c-0.62-2.04-1.58-4.02-3.82-4.68
		C662.37,1019.19,661.47,1020.43,661.55,1021.84L661.55,1021.84z"/>
	<path class="st3" d="M743.33,1225.07c4.13-1.11,9.12,4.91,12.77-0.39c0.13-0.18,0.26-0.31,0.39-0.49c0.04-0.08,0.08-0.1,0.13-0.18
		c-0.04,0-0.08-0.01-0.1-0.01c-0.17,0.01-0.32-0.03-0.49-0.01C751.76,1224.06,747.27,1222.01,743.33,1225.07L743.33,1225.07z"/>
	<path class="st3" d="M756.86,1224.01c-0.01,0-0.18-0.12-0.18-0.12c-0.03,0.04-0.05,0.06-0.08,0.12c0.08-0.01,0.14,0,0.22,0H756.86z
		"/>
	<path class="st3" d="M710.22,1003.43l0.48-0.44c-0.49-4.26-2.98-5.88-7.31-6.45C704.16,1001.46,706.14,1003.66,710.22,1003.43
		L710.22,1003.43z"/>
	<path class="st3" d="M702.86,1307.23c0.67,1.73,2.31,1.23,3.15,0.53c1.74-1.41,4.74-2.73,1.81-5.72c-1.02-0.03-2.04-0.05-3.08-0.08
		C702.6,1303.18,701.99,1305.02,702.86,1307.23L702.86,1307.23z"/>
	<path class="st3" d="M884.31,928.09c-0.94-0.52-2.33-1.52-3.18,0.39c-0.87,1.95-0.32,3.53,1.65,3.98c2.42,0.54,4.28,3.06,8.18,1.69
		C890.26,929.97,886.86,929.48,884.31,928.09L884.31,928.09z"/>
	<path class="st3" d="M699.75,992.22c0.01-2.36-2.03-1.99-3.31-2.4c-1.8,0.03-3.84,0.1-4.06,1.95c-0.34,2.71,1.81,3.35,4.04,3.22
		C698.14,994.9,699.74,994.33,699.75,992.22L699.75,992.22z"/>
	<path class="st3" d="M728.95,1286.34c-2.17,0.12-3.1,1.58-2.58,3.4c0.25,0.85,1.87,1.29,2.67,1.8c2.02-0.72,3.95-1.37,3.79-3.37
		C732.65,1285.93,730.57,1286.25,728.95,1286.34L728.95,1286.34z"/>
	<path class="st3" d="M749.72,1280.86c0.14,1.02,0.19,2.87,2.11,1.89c1.56-0.76,2.35-2.29,2.17-4.03c-0.14-1.36-0.94-2.21-2.34-1.93
		C749.64,1277.59,749.47,1279.23,749.72,1280.86L749.72,1280.86z"/>
	<path class="st3" d="M895.89,944.79c1.33-3.58-0.98-5.32-3.76-6.77c-1.91,2.95-2.14,5.58,1.55,7.26
		C894.26,945.54,895.73,945.19,895.89,944.79L895.89,944.79z"/>
	<path class="st3" d="M694.9,1051.43c-1.36-0.16-2.26,0.87-1.85,2.26c0.31,1.09,0.9,2.34,1.78,2.95c1.68,1.18,1.73-0.65,2.22-1.63
		C697.05,1053.39,696.99,1051.65,694.9,1051.43L694.9,1051.43z"/>
	<path class="st3" d="M643.1,1193.27c2.46,3.24,5.18,1.33,7.86-0.35C648.36,1193.08,645.58,1189.56,643.1,1193.27L643.1,1193.27z"/>
	<path class="st3" d="M760.99,859.83c3.35,2.34,6.05,2.83,9.04,0.28C767.07,857.59,764.49,857.39,760.99,859.83L760.99,859.83z"/>
	<path class="st3" d="M702.14,1035.59c0.47,1.82,2.12,2.64,3.9,2.71c0.34,0.01,0.71-1.34,1.09-2.07c-0.56-1.68-1.21-3.54-3.27-3.49
		C702.49,1032.77,701.83,1034.39,702.14,1035.59L702.14,1035.59z"/>
	<path class="st3" d="M722.35,1010.87c-1.29,0.45-1.52,2.04-0.09,2.6c1.98,0.76,4.13,0.67,6.06-0.5c0.36-0.21,0.65-0.54,1.03-0.9
		c-0.31-0.28-0.61-0.58-0.94-0.81C726.48,1009.94,724.3,1010.2,722.35,1010.87L722.35,1010.87z"/>
	<path class="st3" d="M655.36,1013.34c1.89,0.67,3.95,3.49,5.58,1.43c1.6-2.02-0.61-3.59-2.83-4.2
		C657.2,1011.5,656.27,1012.43,655.36,1013.34L655.36,1013.34z"/>
	<path class="st3" d="M720.38,990.44c-1.23,0.22-2.31,0.83-1.86,2.38c0.35,1.21,1.09,2.2,2.53,1.89c1.19-0.25,2.31-0.72,2.09-1.54
		C722.51,991.15,721.81,990.17,720.38,990.44L720.38,990.44z"/>
	<path class="st3" d="M777,899.95c1.2,0.36,2.58-0.21,2.47-1.6c-0.13-1.82-1.67-2.66-3.37-3.06c-1.38-0.3-2.52,0.27-2.49,1.62
		C773.66,898.86,775.48,899.48,777,899.95L777,899.95z"/>
	<path class="st3" d="M820.55,1325.92c0-0.08,0.06-0.12,0.08-0.21h-0.26L820.55,1325.92z"/>
	<path class="st3" d="M726.29,1316.46c-2.24,2.85-5.45,0.94-7.76,1.97c-1.28,3.17-3.83,4.54-7.08,4.52c-0.62,0-1.26,0.09-1.9,0.21
		c-1.83-2.33-3.65-4.7-5.41-7.08c2.17-2.33,4.47-4.79,8.17-2.78c1.94,1.09,3.88,1.44,5.85,1.98
		C720.92,1313.63,723.35,1314.44,726.29,1316.46z"/>
	<path class="st3" d="M854.61,1433.68c0.26,1.31,0.83,2.25,2.31,2.34c1.43,0.08,2.24-0.58,2.56-2.07c-0.37-1.69-1.42-3.06-3.28-2.98
		C854.98,1431.02,854.32,1432.28,854.61,1433.68L854.61,1433.68z"/>
	<path class="st3" d="M803.41,1346.91c-0.31,0.05-0.65,0.12-0.94,0.16c0,0.37,0.14,0.66,0.18,1.02c0.17,1.2,0.57,2.25,2.24,2.15
		c1.24-0.08,2.56-1.18,1.82-2.46C805.99,1346.51,804.69,1346.69,803.41,1346.91L803.41,1346.91z"/>
	<path class="st3" d="M802.34,1347.09c0.04-0.01,0.08-0.03,0.12-0.03c0-0.03,0-0.05,0-0.08L802.34,1347.09z"/>
	<path class="st3" d="M843.89,1409.64c-0.49,0.3-0.71,1.05-0.99,1.49c0.89,1.33,2.09,1.47,3.24,0.85c0.48-0.25,1.03-1.37,0.85-1.69
		C846.29,1409.02,845.04,1408.95,843.89,1409.64L843.89,1409.64z"/>
	<path class="st3" d="M814.95,902.01c-1.02,0.27-1.21,0.98-0.71,1.91c0.58,1.07,1.45,1.86,2.7,1.52c0.97-0.27,1.15-1.07,0.48-2.22
		C817.14,902.21,816.24,901.68,814.95,902.01L814.95,902.01z"/>
	<path class="st3" d="M924.39,976.04L924.39,976.04c1.43-0.8,1.29-2.08,1.01-3.26c-0.09-0.37-0.39-0.85-0.66-1.25
		c-0.27-0.37-0.52-0.67-0.56-0.66c-1.65,0.89-1.9,2.4-1.32,4.02C923.04,975.4,923.88,975.68,924.39,976.04L924.39,976.04z"/>
	<path class="st3" d="M742.74,967.29c-0.22-1.38-1.4-2.17-2.7-2.02c-0.45,0.05-0.78,1.32-1.15,2.04c0.32,1.5,1.38,2.05,2.7,1.71
		C742.12,968.86,742.82,967.8,742.74,967.29L742.74,967.29z"/>
	<path class="st2" d="M762.84,966.39l0.15-0.18c-0.09,0.01-0.17,0.04-0.26,0.05C762.78,966.31,762.81,966.36,762.84,966.39"/>
	<path class="st3" d="M760.32,963.89c-1.36-0.62-3.49-1.41-4.03,0.71c-0.61,2.3,1.81,2.03,3.13,2.21c1.06,0.12,2.21-0.31,3.32-0.54
		C761.95,965.42,761.29,964.33,760.32,963.89L760.32,963.89z"/>
	<path class="st3" d="M735.84,1226.18c-1.58-0.13-2.48,0.58-2.33,2.14c0.09,0.81,0.5,2.11,1.02,2.26c1.38,0.36,2.31-0.65,2.93-1.89
		C738.4,1226.88,736.98,1226.62,735.84,1226.18L735.84,1226.18z"/>
	<path class="st3" d="M720.89,1229.75c-0.27-0.74-0.31-1.83-0.83-2.13c-1.18-0.71-2.09,0.05-2.67,1.18
		c-0.49,0.93-0.28,1.59,0.7,1.98C719.31,1231.25,720.3,1231.03,720.89,1229.75L720.89,1229.75z"/>
	<path class="st3" d="M876.31,1135.58c1.51,0.21,2.09-1.07,1.91-2.3c-0.14-1.12-0.85-2.17-1.33-3.28c-1.59,0.92-1.89,2.17-1.68,3.48
		C875.32,1134.24,875.84,1135.52,876.31,1135.58L876.31,1135.58z"/>
	<path class="st3" d="M737.64,1063.24c-1.19-0.23-2.38,0.23-2.12,1.72c0.09,0.47,1.28,1.05,1.9,0.99c0.65-0.05,1.23-0.81,1.83-1.27
		C738.71,1064.18,738.25,1063.37,737.64,1063.24L737.64,1063.24z"/>
	<path class="st3" d="M757.59,1065.12c-0.01,0.72,0.54,1.45,0.85,2.18c0.52-0.39,1.23-0.68,1.55-1.2c0.56-0.89,0.17-1.64-0.81-2.05
		C758.61,1064.41,757.59,1064.76,757.59,1065.12L757.59,1065.12z"/>
	<path class="st3" d="M679,1072.6c-0.05,0.12,0.45,0.65,0.78,0.81c1.11,0.61,2.2,0.74,3.05-0.59c-0.3-0.49-0.52-1.32-0.97-1.5
		C680.63,1070.91,679.6,1071.48,679,1072.6L679,1072.6z"/>
	<path class="st3" d="M730.45,969.8c-0.71-0.28-1.41-0.57-2.12-0.87c-0.41,0.49-0.83,0.99-1.24,1.49c0.7,0.3,1.42,0.83,2.09,0.79
		C729.64,971.17,730.04,970.29,730.45,969.8L730.45,969.8z"/>
	<path class="st3" d="M740.63,1020.69c-0.32,0.27-0.76,0.5-0.94,0.85c-0.57,1.05-0.21,1.94,0.96,1.94c1.15-0.01,1.51-0.89,0.94-1.93
		C741.37,1021.22,740.95,1020.97,740.63,1020.69L740.63,1020.69z"/>
	<path class="st3" d="M639.41,1092.47c-0.93-0.56-1.82-0.21-1.91,0.85c-0.05,0.49,0.68,1.51,1.1,1.52c0.7,0.03,1.41-0.54,2.18-0.92
		C640.32,1093.43,639.96,1092.8,639.41,1092.47L639.41,1092.47z"/>
	<path class="st3" d="M659.91,1096.27c-0.57-0.4-1.15-1.12-1.73-1.12c-0.65,0-1.28,0.65-1.91,1.02c0.62,0.4,1.23,0.81,1.86,1.21
		C658.72,1097.02,659.33,1096.63,659.91,1096.27L659.91,1096.27z"/>
	<path class="st3" d="M832.75,1120.95c0.74,0,1.46-0.59,2.25-0.97c-0.47-0.56-0.8-1.23-1.37-1.54c-0.94-0.56-1.86-0.14-1.96,0.93
		C831.62,1119.89,832.38,1120.97,832.75,1120.95L832.75,1120.95z"/>
	<path class="st3" d="M654.14,1108.22c-0.26-0.08-0.85,0.87-1.28,1.33c0.59,0.26,1.25,0.67,1.98,0.84c0.25,0.06,0.65-0.5,0.96-0.79
		C655.25,1109.11,654.77,1108.43,654.14,1108.22L654.14,1108.22z"/>
	<path class="st3" d="M754.18,928.78c-0.47-0.53-0.89-1.41-1.36-1.43c-0.75-0.04-1.52,0.5-2.29,0.78c0.44,0.5,0.85,1.38,1.33,1.43
		C752.59,929.59,753.37,929.06,754.18,928.78L754.18,928.78z"/>
	<path class="st3" d="M910.33,881.27c-0.27-0.3-0.49-0.71-0.83-0.88c-0.97-0.49-1.89-0.14-1.89,0.89c0,1.03,0.92,1.36,1.87,0.88
		C909.83,881.98,910.06,881.56,910.33,881.27L910.33,881.27z"/>
	<path class="st3" d="M685.31,1247.1c0.36-0.06,0.57-1.1,0.84-1.63c-0.76-1.55-1.86-1.06-2.92-0.62c-1.15,0.5-1.18,1.1-0.04,1.6
		C683.88,1246.78,684.65,1247.19,685.31,1247.1L685.31,1247.1z"/>
	<path class="st3" d="M824.89,1248.34c-0.62-0.39-1.25-1.11-1.89-1.14c-0.62-0.01-1.28,0.7-1.91,1.07c0.61,0.41,1.21,1.14,1.82,1.14
		C823.56,1249.41,824.23,1248.74,824.89,1248.34L824.89,1248.34z"/>
	<path class="st3" d="M869.81,1175.86c0.63,0.05,1.32-0.45,2.04-0.72c-0.43-0.49-0.79-1.27-1.24-1.32c-0.61-0.05-1.29,0.43-1.94,0.7
		C869.05,1174.99,869.4,1175.82,869.81,1175.86L869.81,1175.86z"/>
	<path class="st3" d="M721.22,1292.31c2.2-4.39-0.83-3.76-3.41-3.54C718.25,1290.62,719.46,1291.73,721.22,1292.31L721.22,1292.31z"
		/>
	<path class="st3" d="M824.18,1325.8c-1.16,0.09-2.37-0.02-3.56-0.07v-0.02c0.25-2.33,1.42-3.86,3.19-4.89
		C823.91,1322.49,824.04,1324.14,824.18,1325.8z"/>
	<path class="st3" d="M909.35,942.45v-0.01c0.19-0.7,0.23-1.4,0.09-2.11c-0.09-0.04-0.18-0.03-0.27-0.05
		c-0.71-0.21-1.43-0.32-2.18-0.32C906.78,941.72,907.75,942.38,909.35,942.45L909.35,942.45z"/>
	<path class="st3" d="M720.95,898.33c0.03,1.42,1.02,1.87,2.17,2.17C723.51,898.66,722.4,898.31,720.95,898.33L720.95,898.33z"/>
	<path class="st3" d="M804.15,899.29c-0.27-0.27-0.5-0.74-0.78-0.75c-0.26-0.01-0.56,0.43-0.83,0.66c0.39,0.27,0.79,0.53,1.18,0.79
		C803.88,899.75,804.02,899.51,804.15,899.29L804.15,899.29z"/>
	<path class="st3" d="M841.42,908.52c-0.03-0.03-0.05-0.04-0.09-0.05c0.01,0.03,0.03,0.05,0.04,0.09L841.42,908.52z"/>
	<path class="st3" d="M840.59,906.58c-0.35,0.31-0.71,0.65-1.06,0.97c0.61,0.31,1.21,0.62,1.81,0.92
		C841.09,907.85,840.83,907.2,840.59,906.58L840.59,906.58z"/>
	<path class="st3" d="M684.39,1077.58c0.39,1.02,0.96,1.2,1.46,0.49c0.14-0.18,0.05-0.53,0.08-0.81c-0.25-0.16-0.58-0.48-0.74-0.43
		C684.87,1076.99,684.35,1077.43,684.39,1077.58L684.39,1077.58z"/>
	<path class="st3" d="M679.02,1134.05l1.19,0.47l1.24-0.26C680.84,1131.8,680.04,1131.69,679.02,1134.05L679.02,1134.05z"/>
	<path class="st3" d="M717.74,1114.72c0.01-0.28-0.5-0.61-0.83-0.97c-0.28,0.31-0.79,0.63-0.79,0.92c0,0.32,0.5,0.63,0.79,0.92
		C717.21,1115.32,717.74,1115.02,717.74,1114.72L717.74,1114.72z"/>
	<path class="st2" d="M815,1013.32c0.04,0.1,0.08,0.22,0.13,0.3l-0.01,0.01c0.09,0.01,0.14,0.06,0.22,0.08
		c-0.01-0.1-0.03-0.16-0.03-0.26C815.21,1013.4,815.11,1013.36,815,1013.32"/>
	<path class="st3" d="M813.17,1012.57c0.61,0.25,1.21,0.49,1.83,0.75c-0.25-0.63-0.49-1.25-0.74-1.86
		C813.91,1011.81,813.53,1012.2,813.17,1012.57L813.17,1012.57z"/>
	<path class="st3" d="M1323.37,1158.24c5.89,4.2,12.65,2.35,18.79,1.72c6.23-0.62,11.73,4.03,18.3,2.2c-2.25-5.1-5.01-7.7-10.3-7.03
		c-4.26,0.53-8.62,0.32-12.92,0.44c-3.54-1.41-5.85-6.46-10.04-5.03c-7.89,2.71-12.96-2.16-18.96-5.35
		c-6.64-3.54-9.06-9.28-8.73-17.35c-8.94,8.52-10.41,13.09-4.04,17.57c5.56,3.92,8.58,10.69,15.42,12.78
		c1.01-0.03,2.03-0.06,3.05-0.1C1317.06,1158.14,1320.21,1158.19,1323.37,1158.24L1323.37,1158.24z"/>
	<path class="st3" d="M1321.83,1178.87c-0.25-1.72-1.15-3.09-3.26-2.77c-1.11,0.17-2.6,0.71-1.91,2.57
		c0.47,1.31,1.23,2.18,2.62,2.53C1321.11,1181.66,1321.3,1180.27,1321.83,1178.87L1321.83,1178.87z"/>
	<path class="st3" d="M1297.32,1121.93c0.01-0.1,0.03-0.19,0.04-0.27c-1.5-0.1-3.39-1.03-4.11,0.63c-0.17,0.36-0.34,0.68-0.36,1.33
		c-0.04,0.67,0.58,1.91,1.06,2C1297.02,1126.14,1296.97,1123.84,1297.32,1121.93L1297.32,1121.93z"/>
	<path class="st3" d="M1297.51,1121.67l-0.13-0.13c0,0.04-0.01,0.08-0.01,0.1C1297.42,1121.65,1297.46,1121.67,1297.51,1121.67z"/>
	<path class="st3" d="M1161.55,698.8c0.85,0.06,1.72,0.13,2.58,0.18c0.87,0.06,1.72,0.1,2.57,0.18c1.59,0,3.18,0.01,4.77,0.03h0.58
		c1.29-0.13,2.62-0.1,3.85-0.44c1.64-0.47,3.57-1.2,3.39-3.27c-0.19-2.27-2.4-2.35-3.86-1.89c-3.73,1.18-7.31,1.14-11.19,0.53
		c-2.69-0.44-3.04,2.33-2.78,4.63L1161.55,698.8z"/>
	<path class="st3" d="M1186.46,779.39c-11.48-1.03-20.87-7.4-30.38-13.45c-2.53-1.6-3.36-4.18-2.81-6.83
		c1.94-9.09,0.48-19.15,7.58-26.75c1.82-9.36,8.67-11.41,17.67-11.39c-2.42,3.7-2.6,8.52-9.18,7.95c-3.67-0.32-2.17,5.29-5.02,6.71
		c-3.49,7.55-0.28,15.11-0.2,22.67c0,2.28,1.17,4.64,3.22,5.18c7.15,1.94,13.06,6.92,19.88,9.65L1186.46,779.39z"/>
	<path class="st3" d="M1189.63,721.56c-0.53,0-1.1-0.07-1.69-0.21c-0.93-0.23-0.8-1.25-0.2-2.1c0.57-0.78,1.16-1.39,1.78-1.8
		C1189.57,718.82,1189.61,720.19,1189.63,721.56z"/>
	<path class="st3" d="M1072.45,777.01c-0.59,0.05-1.64,0.9-1.63,1.34c0.12,2.24,2.48,2.39,3.66,3.72c0.17,0.19,0.39,0.34,0.5,0.58
		c0.08,0,0.15-0.01,0.23-0.01c1.06-0.06,2.12-0.14,3.17-0.22c0.12,0,0.25-0.01,0.36-0.03c0.36-0.03,0.71-0.05,1.09-0.08
		C1078.97,778.33,1076.32,776.74,1072.45,777.01L1072.45,777.01z"/>
	<path class="st3" d="M1182.93,715.51c0.44,0.3,0.88,0.61,1.32,0.88c0.16-0.27,0.31-0.56,0.48-0.85c-0.3-0.3-0.58-0.81-0.89-0.81
		C1183.54,714.71,1183.24,715.24,1182.93,715.51L1182.93,715.51z"/>
	<path class="st3" d="M1177.22,680.48c0.01-0.04,0.03-0.06,0.04-0.09c-0.08,0.03-0.16,0.06-0.23,0.1c-0.58,0.26-1.15,0.52-1.74,0.79
		c0.35,0.35,0.7,0.72,1.06,1.09C1176.62,681.73,1176.93,681.1,1177.22,680.48L1177.22,680.48z"/>
	<path class="st3" d="M1177.28,680.37c0,0,0,0-0.01,0.03c0.01-0.01,0.01-0.01,0.03-0.03H1177.28z"/>
	<path class="st3" d="M996.74,542.66c1.23,4.41,4.51,8.39,4.03,13.18c-1.29,12.91,5.54,22.02,13.81,30.52
		c1.32-0.1,2.69-0.4,3.98-0.4c1.41,0,2.74,0.41,3.86,1.89c0.04,0.04,0.08,0.05,0.12,0.09c5.96-1.27,12.4,6.12,19.2-0.96
		c-6.02-1.85-10.94-3.54-15.97-4.83c-8.97-2.3-13.95-9.25-16.02-16.95c-2.88-10.84-3.5-22.26-5.08-33.45c1.42-1,2.74-2.61,4.28-2.86
		c8.1-1.29,9.67-6.18,7.84-13.23c-1.1-0.28-2.11-0.16-3.09,0.1c-1.2,0.31-2.36,0.79-3.54,1.25c-0.35,0.1-0.68,0.26-1.05,0.36
		c-2.26,3.17-1.49,7.83-5.09,10.36C998.53,531.18,994.43,534.32,996.74,542.66L996.74,542.66z"/>
	<path class="st3" d="M1050.16,566.35c-1.93,0.53-3.79,1.37-3.24,3.35c1.19,4.29,4.11,7.91,8.18,9.16c2.26,0.7,4.46-2.77,4.03-5.26
		C1058.28,568.79,1054.68,566.67,1050.16,566.35L1050.16,566.35z"/>
	<path class="st3" d="M969.32,616.57c6.47-0.27,3.41,9.43,9.56,8.88c1.91-0.17,2.51-1.2,2.26-3.45c-0.66-5.91-3.31-8.64-9.24-8.22
		C971,614.55,968.81,616.6,969.32,616.57L969.32,616.57z"/>
	<path class="st3" d="M1015.92,506.79c0.49,0.32,0.98,0.66,1.54,0.9c1.67-0.44,3.4-0.71,4.97-1.36c3.53-1.46,4.41-3.57,1.78-6.86
		c-2.2-2.77-4.1-2.71-6.23-0.23c-1.41,1.64-2.69,3.4-4.03,5.09c0.22,0.81,0.67,1.37,1.19,1.86
		C1015.37,506.43,1015.65,506.61,1015.92,506.79L1015.92,506.79z"/>
	<path class="st3" d="M1043.18,508.83c0.3-2.17-2.96-1.78-4.92-1.38c-3.95,1.24-8.81-2-13.33,2.3c4.42,0.94,7.62,1.62,10.83,2.31
		C1039.51,513.9,1042.66,512.62,1043.18,508.83L1043.18,508.83z"/>
	<path class="st3" d="M973.65,634.6c0.59,2.02,2.71,1.42,4.26,1.8c0.27-0.06,0.54-0.14,0.83-0.22c0.25-0.06,0.52-0.13,0.78-0.21
		c0.32-0.08,0.67-0.17,1.01-0.27c0.85-1.72,1.71-3.44,2.56-5.17c-0.04-0.01-0.08,0-0.13-0.01c-2.61-0.59-4.78,0.65-6.9,1.87
		C975.1,632.95,973.51,634.14,973.65,634.6L973.65,634.6z"/>
	<path class="st2" d="M983.2,630.54l-0.04-0.04l0.04,0.03c0-0.04,0.03-0.05,0.03-0.09c-0.01,0-0.03,0.01-0.03,0.01
		c-0.03,0-0.04,0.01-0.06,0.01v-0.01l-0.04,0.08C983.13,630.54,983.16,630.52,983.2,630.54"/>
	<path class="st3" d="M1052.11,627.28c1.34-0.18,2.16-1.07,1.8-2.51c-0.31-1.28-1.05-2.2-2.57-1.96c-1.11,0.4-2.53,0.59-1.86,2.35
		C1049.93,626.36,1050.65,627.46,1052.11,627.28L1052.11,627.28z"/>
	<path class="st3" d="M993.54,578.51c-1.05,0.28-1.2,0.96-0.68,1.91c0.57,1.05,1.25,2.08,2.53,1.6c0.45-0.15,0.53-1.36,0.76-2.08
		C995.71,578.67,994.85,578.14,993.54,578.51L993.54,578.51z"/>
	<path class="st3" d="M996.37,635.65h7.66C1001.49,630.76,998.93,630.64,996.37,635.65L996.37,635.65z"/>
	<path class="st3" d="M985.65,628.03c0.04-0.01,0.08-0.03,0.14-0.03l-0.05-0.05l-0.1-0.1c0.01,0.09-0.05,0.1-0.05,0.19
		C985.61,628.04,985.63,628.03,985.65,628.03z"/>
	<path class="st3" d="M985.57,628.1c0-0.03,0.01-0.04,0.01-0.06c-1.55-0.09-2.39,0.57-2.3,2.17c0,0.09-0.06,0.1-0.05,0.19
		c0,0.03-0.01,0.03-0.01,0.04C984.84,630.48,985.65,629.72,985.57,628.1L985.57,628.1z"/>
	<path class="st3" d="M985.59,565.06c-0.76,0.75-1.51,1.49-2.26,2.24C984.92,567.4,986.25,567.22,985.59,565.06L985.59,565.06z"/>
	<path class="st3" d="M1205.45,1089.03c-0.43,0.71-0.87,1.28-1.33,1.74c0.36-0.57,0.73-1.16,1.09-1.73
		C1205.27,1089.05,1205.36,1089.03,1205.45,1089.03z"/>
	<path class="st3" d="M1120.76,542.64c0.63,2.56,2.26,4.78,5.44,4.37c2.24-0.28,4.63-1.25,2.82-4.02c-1.47-2.24-0.52-6.43-4.77-6.59
		C1121.65,537.74,1120.06,539.82,1120.76,542.64L1120.76,542.64z"/>
	<path class="st3" d="M1118.21,531.61c-0.56-2.38-1.55-4.81-5.7-5.54c-0.26,0.45-1.29,1.43-1.41,2.52
		c-0.39,3.24,2.57,3.81,4.64,4.77C1116.64,533.77,1118.51,532.91,1118.21,531.61L1118.21,531.61z"/>
	<path class="st3" d="M1131.28,552.92c4.03,1.8,7.15,2.36,12.06,0.31C1139.09,550.27,1135.65,550.83,1131.28,552.92L1131.28,552.92z
		"/>
	<path class="st3" d="M1159.25,579.92c-1.51-0.53-1.98-1.78-1.37-3.15C1158.34,577.82,1158.79,578.87,1159.25,579.92z"/>
	<path class="st3" d="M1133.27,529.9c0.02,0.02,0,0.02,0,0.02c-1.21,1.41-2.81,1.33-4.36,0.96c-0.71-0.18-1.89-1.19-1.89-1.35
		c1.14-2.14,3.04-2.33,5.02-1.62C1132.45,528.57,1132.86,529.24,1133.27,529.9z"/>
	<path class="st3" d="M1134.32,606.26c-0.3-0.56-0.53-1.56-0.93-1.62c-1.51-0.28-3.24-0.85-4.35,0.81
		c-0.14,0.23,0.47,1.37,0.92,1.52C1131.43,607.49,1133.06,608.02,1134.32,606.26L1134.32,606.26z"/>
	<path class="st3" d="M1128.28,566.2c0.97,0.68,1.91,1.84,2.91,1.87c1.01,0.01,2.05-1.05,3.44-1.85c-1.34-0.78-2.36-1.83-3.36-1.8
		C1130.26,564.45,1129.28,565.56,1128.28,566.2L1128.28,566.2z"/>
	<path class="st3" d="M1122.82,560.44c-0.09,0.5,0.68,1.14,1.07,1.72c0.76-0.32,1.52-0.63,2.29-0.93c-0.43-0.54-0.75-1.23-1.31-1.59
		C1123.96,559.06,1123,559.38,1122.82,560.44L1122.82,560.44z"/>
	<path class="st3" d="M1102.53,500.29c-0.31,1.46,0.84,1.84,1.96,1.58c0.65-0.14,1.16-0.84,1.74-1.29c-0.59-0.41-1.19-0.83-1.8-1.25
		C1103.78,499.64,1102.63,499.85,1102.53,500.29L1102.53,500.29z"/>
	<path class="st3" d="M1089.48,548.98c1.12-0.49,1.29-1.16,0.48-1.72c-0.21-0.15-0.59-0.03-0.92-0.03c-0.14,0.31-0.5,0.68-0.41,0.88
		C1088.78,548.49,1089.34,549.06,1089.48,548.98L1089.48,548.98z"/>
	<path class="st3" d="M1148.64,1242.52c4.07,6.02,9.02,5.45,14.1,4.56C1159.07,1244.46,1155.65,1241.29,1148.64,1242.52
		L1148.64,1242.52z"/>
	<path class="st3" d="M1186.75,1215.15c-1.47-2.03-3.05-0.36-4.51,0.1c-0.7,0.21-1.81,1.33-1.69,1.6c0.89,2.04,2.67,1.37,4.23,1.02
		C1186.1,1217.57,1186.97,1216.75,1186.75,1215.15L1186.75,1215.15z"/>
	<path class="st3" d="M1179.16,1282.8c-0.4-0.48-0.79-1.34-1.23-1.37c-0.7-0.03-1.42,0.49-2.6,0.94c0.68,0.5,1.2,1.15,1.72,1.18
		C1177.75,1283.56,1178.46,1283.07,1179.16,1282.8L1179.16,1282.8z"/>
	<path class="st3" d="M899.79,727.62c-0.02,2.17-0.12,4.38-2.76,5c-2.24,0.55-4.4,0.12-5.16-2.31c-0.12-0.37-0.23-0.75-0.34-1.14
		c1.78-1.98,3.61-4,5.46-6.09C898.46,724.19,899.79,725.4,899.79,727.62z"/>
	<path class="st3" d="M894.15,777.49c0.61,1.21,1.23,2.43,1.85,3.66c0.22,0.47,0.45,0.92,0.68,1.38c0.03,0,0.05,0,0.08,0.01
		c1.56,0.06,3.13,0.09,4.68,0.16c0.16,0.01,0.3,0.01,0.44,0.01c0.06-0.34,0.03-0.57,0.06-0.87
		C902.58,775.5,897.21,778.24,894.15,777.49L894.15,777.49z"/>
	<path class="st2" d="M893.9,777.44c0.08,0.03,0.18,0.03,0.26,0.05c-0.04-0.09-0.08-0.17-0.12-0.25
		C894.04,777.25,893.9,777.43,893.9,777.44"/>
	<path class="st3" d="M866.47,756.66c-0.27,0-0.54,0.43-0.81,0.68c0.39,0.27,0.79,0.54,1.18,0.79c0.14-0.25,0.27-0.5,0.43-0.76
		C867,757.11,866.74,756.67,866.47,756.66L866.47,756.66z"/>
	<path class="st3" d="M1053.78,1331.14c0,0.03,0.01,0.05,0.01,0.08c0.01,0,0.04,0.01,0.05,0.03L1053.78,1331.14z"/>
	<path class="st3" d="M1047.61,1332.62c-0.31,1.51,2.18,4.04,4.63,3.68c3.4-0.49,1.52-3.17,1.56-5.03c0,0,0-0.03,0-0.05
		c-0.03,0-0.05,0-0.08-0.01C1051.41,1330.81,1048.36,1328.96,1047.61,1332.62L1047.61,1332.62z"/>
	<path class="st3" d="M1063.84,1343.38c0.14-0.21,0.03-0.57,0.03-0.87c-0.23-0.13-0.57-0.48-0.74-0.41
		c-0.34,0.16-0.85,0.62-0.8,0.78C1062.74,1343.95,1063.33,1344.12,1063.84,1343.38L1063.84,1343.38z"/>
	<path class="st3" d="M908.31,818.63c-0.62,0.96-1.69,1.93-1.71,2.91c-0.01,0.89,1.11,1.81,1.74,2.73c0.71-0.88,1.4-1.74,2.22-2.78
		C909.72,820.41,909.02,819.51,908.31,818.63L908.31,818.63z"/>
	<path class="st3" d="M1083.51,705.05c6.64-2.27,13.48,0.97,19.28-4.3c-2.51-2.65-4.83-1.87-6.82-2.43
		c-0.27,0.18-0.61,0.08-0.9,0.17c-0.43,0.12-0.85,0.3-1.3,0.25c-0.09-0.01-0.17,0.06-0.27,0.05c-1.02,1.73-2.93,1.72-4.85,2
		c-1.02,0.43-2.04,0.81-3.1,1.12C1084.71,702.54,1084,703.49,1083.51,705.05L1083.51,705.05z"/>
	<path class="st3" d="M1058.74,943.05c-3.09-2.96-7.55-5.36-8.94-8.95c-2.07-5.36-5.7-6.9-11.72-8.18
		C1045.64,946.96,1047.97,948.8,1058.74,943.05L1058.74,943.05z"/>
	<path class="st3" d="M1302.49,999.1c1.69-0.12,3.27-0.68,3.79-2.62c-0.39-1.41-1.6-1.69-2.78-1.72c-2-0.05-3.13,1.01-2.67,3.05
		C1300.94,998.35,1301.95,999.12,1302.49,999.1L1302.49,999.1z"/>
	<path class="st3" d="M1328.4,1014.96c0.45-1.6-1.11-1.82-2.24-1.74c-0.65,0.05-1.62,0.63-1.8,1.2c-0.39,1.16,0.1,2.21,1.8,2.71
		C1326.85,1016.5,1328.14,1015.88,1328.4,1014.96L1328.4,1014.96z"/>
	<path class="st3" d="M1064.39,1397.39c0.4,2.03,2.27,2.08,3.82,2.21c1.2,0.09,2.36-0.45,2.82-1.78c-1.09-1.77-2.79-1.9-4.54-1.55
		C1065.72,1396.42,1064.35,1397.14,1064.39,1397.39L1064.39,1397.39z"/>
	<path class="st3" d="M1078.16,1400.67c-0.4-0.41-0.8-0.84-1.21-1.27c-0.48,0.37-0.97,0.72-1.41,1.14
		c-0.04,0.04,0.47,0.85,0.62,0.83C1076.84,1401.24,1077.5,1400.93,1078.16,1400.67L1078.16,1400.67z"/>
	<path class="st3" d="M1034.69,708.01c0.44-1.43-0.8-1.87-2.7-1.96c-0.54,0.25-2.21,0.47-2.56,1.25c-0.59,1.38,0.92,1.74,2.04,1.81
		C1032.67,709.2,1034.25,709.49,1034.69,708.01L1034.69,708.01z"/>
	<path class="st3" d="M1046.73,686.75c0.63,0.49,1.12,1.15,1.63,1.16c0.7,0.04,1.41-0.43,2.12-0.67c-0.43-0.45-0.81-1.25-1.27-1.28
		C1048.54,685.91,1047.82,686.38,1046.73,686.75L1046.73,686.75z"/>
	<path class="st2" d="M1033.03,814.2c0-0.03-0.01-0.04-0.01-0.06c-0.01,0-0.03,0-0.04-0.01c-0.01,0.01-0.01,0.04-0.01,0.05
		C1032.98,814.19,1033.01,814.19,1033.03,814.2"/>
	<path class="st3" d="M1030.54,813.48c0.72,0.19,1.45,0.37,2.17,0.58c0.14,0.15,0.27,0.32,0.43,0.47c0.37,4.73,4.78,6.42,7.34,9.48
		c-0.09,0.18-0.23,0.39-0.36,0.57h0.9c0.48-0.12,0.98-0.13,1.49-0.18c0.28-0.03,0.56-0.12,0.84-0.12
		c0.84-7.77-5.54-8.08-10.31-10.08c0,0.1,0.08,0.17,0.08,0.27c-0.13-0.14-0.26-0.28-0.39-0.41c0.09,0.03,0.17,0.05,0.26,0.06
		c0.13-0.31,0.36-0.66,0.28-0.89c-0.18-0.56-0.56-1.05-0.84-1.55c-3.04-2.58-6.07-5.16-10.83-9.21
		C1022.9,809.9,1027.18,811.27,1030.54,813.48L1030.54,813.48z"/>
	<path class="st3" d="M1279.79,1064.35c-2.49-0.67-4.13-4.79-7.83-1.69c4.7,4.95,9.6,8.42,19.07,4.11
		C1285.4,1065.58,1282.56,1065.08,1279.79,1064.35L1279.79,1064.35z"/>
	<path class="st3" d="M968.8,983.75c-0.41-0.59-0.72-1.55-1.28-1.73c-1.31-0.41-2.57,0.08-2.71,1.6c-0.05,0.68,0.65,2.02,1.07,2.04
		C967.16,985.76,968.31,985.14,968.8,983.75L968.8,983.75z"/>
	<path class="st3" d="M987.68,982.71c-0.49-0.08-1.59,0.75-1.59,1.14c0.01,1.71,0.63,3.24,2.7,3.22c0.67,0,1.32-0.66,1.99-1.02
		C990.25,984.45,989.49,982.98,987.68,982.71L987.68,982.71z"/>
	<path class="st3" d="M979.21,751.98c-0.79-1.34-2.03-1.59-3.27-1.23c-0.7,0.19-1.83,1.23-1.74,1.43c0.75,1.73,2.17,2.42,3.93,1.52
		C978.66,753.43,978.88,752.56,979.21,751.98L979.21,751.98z"/>
	<path class="st3" d="M1008.23,759.08c-1.71-0.43-2.82,0.57-3.26,2.25c0.72-0.18,1.32,0.03,1.78,0.59c0.22,0,0.43-0.03,0.65-0.04
		c0.68-0.04,1.37-0.09,2.05-0.14C1009.73,760.53,1009.41,759.38,1008.23,759.08L1008.23,759.08z"/>
	<path class="st3" d="M1216.49,1388.28c-1.21-0.41-2.12-1.23-2.75-2.35c-0.36,0.54-1.16,1.36-1.02,1.59
		C1213.64,1389.04,1215.06,1388.83,1216.49,1388.28L1216.49,1388.28z"/>
	<path class="st2" d="M1276.97,1181.46l0.01-0.03h-0.03C1276.95,1181.43,1276.97,1181.45,1276.97,1181.46"/>
	<path class="st3" d="M1276.65,1180.98c-0.61-1.36-1.64-2.11-3.23-1.74c-0.41,0.1-1.03,1.41-0.88,1.58
		c0.25,0.31,0.53,0.47,0.81,0.62c1.06,0.52,2.27,0.16,3.45,0.03c0.05,0,0.1-0.03,0.16-0.03c-0.04-0.1-0.12-0.13-0.16-0.22
		C1276.76,1181.11,1276.68,1181.07,1276.65,1180.98L1276.65,1180.98z"/>
	<path class="st3" d="M1082.13,619.02c0.03-0.13-0.06-0.17-0.05-0.28c0.1-1.14-0.61-1.72-1.82-1.37c-0.71,0.22-1.32,0.8-1.98,1.23
		c0.49,0.32,0.97,0.72,1.45,0.98c0.16,0.09,0.3,0.22,0.47,0.25C1080.82,619.88,1082.02,619.43,1082.13,619.02L1082.13,619.02z"/>
	<path class="st3" d="M1007.35,511.2c0.7,0.89,1.85,0.94,3.15,0.67c0.34-0.08,0.87-0.83,0.8-0.9c-0.44-0.59-0.98-0.81-1.55-0.94
		c-0.96-0.19-2.02-0.03-2.97-0.21C1006.88,510.42,1007.09,510.87,1007.35,511.2L1007.35,511.2z"/>
</g>
</svg>
